<?xml version="1.0" encoding="UTF-8" standalone="no"?>
<svg width="174px" height="58px" viewBox="0 0 174 58" version="1.1" xmlns="http://www.w3.org/2000/svg" xmlns:xlink="http://www.w3.org/1999/xlink">
    <!-- Generator: Sketch 41.2 (35397) - http://www.bohemiancoding.com/sketch -->
    <title>halykBank_зеленый</title>
    <desc>Created with Sketch.</desc>
    <defs></defs>
    <g id="Page-1" stroke="none" stroke-width="1" fill="none" fill-rule="evenodd">
        <g id="halykBank_зеленый">
            <g id="halykBank_yellow">
                <path d="M28.6286014,0.000234343434 L19.0527586,9.57843636 L9.57590143,9.57843636 L9.57590143,19.0576283 L5.85714288e-05,28.6352444 L9.57590143,38.2140323 L9.57590143,47.6932242 L19.0527586,47.6932242 L28.6286014,57.2708404 L38.2044443,47.6932242 L47.6813014,47.6932242 L47.6813014,38.2140323 L57.2571443,28.6352444 L47.6813014,19.0576283 L47.6813014,9.57843636 L38.2044443,9.57843636 L28.6286014,0.000234343434 Z M11.9580014,38.911204 L9.57590143,36.5296889 L9.57590143,36.529103 L1.68398714,28.6352444 L9.57590143,20.7419717 L9.57590143,20.7413859 L11.9580014,18.3598707 L11.9580014,11.9605374 L18.3551729,11.9605374 L28.6286014,1.68457778 L36.5205157,9.57843636 L38.90203,11.9605374 L45.2997871,11.9605374 L45.2997871,18.3598707 L47.6813014,20.7413859 L47.6813014,20.7419717 L55.5732157,28.6352444 L47.6813014,36.529103 L47.6813014,36.5296889 L45.2997871,38.911204 L45.2997871,45.3111232 L38.90203,45.3111232 L36.5205157,47.6932242 L28.6286014,55.5870828 L20.7366871,47.6932242 L18.3551729,45.3111232 L11.9580014,45.3111232 L11.9580014,38.911204 Z M5.05184429,28.6352444 L28.6286014,52.218396 L52.2053586,28.6352444 L28.6286014,5.05326465 L5.05184429,28.6352444 Z" id="Fill-1" fill="#00805F"></path>
                <path d="M45.2996114,21.7284404 L45.2996114,21.7290263 C41.32144,26.5260364 35.3219686,29.5883192 28.6284257,29.5883192 C23.46184,29.5889051 19.2487971,33.8029859 19.2487971,38.9708444 C19.2487971,41.4115313 20.1882829,43.6389657 21.7240257,45.3110061 L21.7228543,45.3110061 L28.6284257,52.2176929 L35.5339971,45.3110061 L45.2996114,35.5429859 L52.2051829,28.6357131 L45.2996114,21.7284404 Z M11.95724,35.5418141 C15.9354114,30.744804 21.9348829,27.6831071 28.6284257,27.6825212 C33.7950114,27.6825212 38.00864,23.4684404 38.00864,18.299996 C38.00864,15.8598949 37.0691543,13.6318747 35.5334114,11.9604202 L35.5339971,11.9604202 L28.6284257,5.05314747 L21.7228543,11.9604202 L11.95724,21.7284404 L5.05225429,28.6357131 L11.95724,35.5429859 L11.95724,35.5418141 Z M1.68439714,28.6357131 L11.95724,18.3597535 L11.95724,11.9604202 L18.3549971,11.9604202 L28.6284257,1.68446061 L38.9018543,11.9604202 L45.2996114,11.9604202 L45.2996114,18.3597535 L55.57304,28.6357131 L45.2996114,38.9116727 L45.2996114,45.3110061 L38.9018543,45.3110061 L28.6284257,55.5869657 L18.3549971,45.3110061 L11.95724,45.3110061 L11.95724,38.9116727 L1.68439714,28.6357131 Z" id="Fill-2" fill="#FAAE17"></path>
                <path d="M98.1734457,41.9757717 L94.3627886,34.3525798 L90.5527171,41.9757717 L98.1734457,41.9757717 Z M62.9263314,40.0699737 L62.9263314,44.8341758 L73.8815314,44.8341758 C75.1911886,44.8341758 76.2630457,43.7626404 76.2630457,42.4520747 C76.2630457,41.1420949 75.1911886,40.0699737 73.8815314,40.0699737 L62.9263314,40.0699737 Z M62.9263314,32.4473677 L62.9263314,37.2115697 L73.8815314,37.2115697 C75.1911886,37.2115697 76.2630457,36.1394485 76.2630457,34.8294687 C76.2630457,33.518903 75.1911886,32.4473677 73.8815314,32.4473677 L62.9263314,32.4473677 Z M107.700089,29.5883778 L112.463117,29.5883778 L125.799831,42.9283778 L125.799831,29.5883778 L130.56286,29.5883778 L130.563446,47.6931657 L125.799831,47.6931657 L125.799831,47.6931657 L112.463117,34.3525798 L112.463117,47.6931657 L107.700089,47.6931657 L107.700089,29.5883778 Z M140.66116,38.6404788 L152.950031,29.5883778 L147.710817,29.5883778 L137.231803,37.2115697 L137.231803,29.5883778 L132.468189,29.5883778 L132.468189,47.6931657 L137.231803,47.6931657 L137.231803,40.0699737 L147.710817,47.6931657 L152.950031,47.6931657 L140.66116,38.6404788 Z M142.947203,9.57837778 L147.710817,9.57837778 L147.710817,17.2009838 L158.189831,9.57837778 L163.429046,9.57837778 L151.140174,18.6304788 L163.429046,27.6825798 L158.189831,27.6825798 L147.710817,20.0599737 L147.710817,27.6825798 L142.947203,27.6825798 L142.947203,9.57837778 Z M132.468189,20.0599737 L141.51806,9.57837778 L136.755031,9.57837778 L130.086674,17.2009838 L123.418317,9.57837778 L118.655289,9.57837778 L127.70516,20.0599737 L127.70516,27.6825798 L132.468189,27.6825798 L132.468189,20.0599737 Z M107.700089,9.57837778 L112.463117,9.57837778 L112.463117,24.8241758 L125.799831,24.8241758 L125.799831,27.6825798 L107.700089,27.6825798 L107.700089,9.57837778 Z M94.3627886,14.3425798 L98.1734457,21.9657717 L90.5527171,21.9657717 L94.3627886,14.3425798 Z M101.031146,27.6825798 L105.79476,27.6825798 L96.7443029,9.57837778 L91.9812743,9.57837778 L82.9314029,27.6825798 L87.6944314,27.6825798 L89.1235743,24.8241758 L99.6025886,24.8241758 L101.031146,27.6825798 Z M58.1627171,9.57837778 L62.9263314,9.57837778 L62.9263314,17.2009838 L76.2630457,17.2009838 L76.2630457,9.57837778 L81.0260743,9.57837778 L81.0260743,27.6825798 L76.2630457,27.6825798 L76.2630457,20.0599737 L62.9263314,20.0599737 L62.9263314,27.6825798 L58.1627171,27.6825798 L58.1627171,9.57837778 Z M58.1627171,29.5883778 L76.5008457,29.5883778 C78.9901314,29.5883778 81.0260743,31.6254081 81.0260743,34.1147212 C81.0260743,36.6040343 78.9901314,38.6404788 76.5008457,38.6404788 C78.9901314,38.6404788 81.0260743,40.6775091 81.0260743,43.1668222 C81.0260743,45.6561354 78.9901314,47.6931657 76.5008457,47.6931657 L58.1627171,47.6931657 L58.1627171,29.5883778 Z M87.6944314,47.6931657 L82.9314029,47.6931657 L91.9812743,29.5883778 L96.7443029,29.5883778 L105.79476,47.6931657 L101.031146,47.6931657 L99.6025886,44.8341758 L89.1235743,44.8341758 L87.6944314,47.6931657 Z" id="Fill-4" fill="#008060"></path>
            </g>
        </g>
    </g>
</svg>